<?xml version="1.0" encoding="UTF-8" standalone="no"?>
<svg
   xmlns:dc="http://purl.org/dc/elements/1.1/"
   xmlns:cc="http://creativecommons.org/ns#"
   xmlns:rdf="http://www.w3.org/1999/02/22-rdf-syntax-ns#"
   xmlns:svg="http://www.w3.org/2000/svg"
   xmlns="http://www.w3.org/2000/svg"
   xmlns:xlink="http://www.w3.org/1999/xlink"
   xmlns:sodipodi="http://sodipodi.sourceforge.net/DTD/sodipodi-0.dtd"
   xmlns:inkscape="http://www.inkscape.org/namespaces/inkscape"
   viewBox="0 0 262 204"
   enable-background="new 0 0 262 204"
   version="1.1"
   id="svg4626"
   sodipodi:docname="Question_book-new.svg"
   inkscape:version="0.92.4 (5da689c313, 2019-01-14)">
  <metadata
     id="metadata4630">
    <rdf:RDF>
      <cc:Work
         rdf:about="">
        <dc:format>image/svg+xml</dc:format>
        <dc:type
           rdf:resource="http://purl.org/dc/dcmitype/StillImage" />
      </cc:Work>
    </rdf:RDF>
  </metadata>
  <sodipodi:namedview
     pagecolor="#ffffff"
     bordercolor="#666666"
     borderopacity="1"
     objecttolerance="10"
     gridtolerance="10"
     guidetolerance="10"
     inkscape:pageopacity="0"
     inkscape:pageshadow="2"
     inkscape:window-width="1920"
     inkscape:window-height="1001"
     id="namedview4628"
     showgrid="false"
     inkscape:zoom="3.9607843"
     inkscape:cx="131"
     inkscape:cy="102"
     inkscape:window-x="-9"
     inkscape:window-y="-9"
     inkscape:window-maximized="1"
     inkscape:current-layer="svg4626" />
  <defs
     id="defs4590">
    <inkscape:path-effect
       effect="spiro"
       id="path-effect4666"
       is_visible="true" />
    <inkscape:path-effect
       effect="spiro"
       id="path-effect4658"
       is_visible="true" />
    <inkscape:path-effect
       effect="spiro"
       id="path-effect4654"
       is_visible="true" />
    <inkscape:path-effect
       effect="spiro"
       id="path-effect4638"
       is_visible="true" />
    <linearGradient
       id="grad2"
       gradientUnits="userSpaceOnUse"
       x1="52.778"
       y1="104.61"
       x2="112.44"
       y2="63.27"
       xlink:href="#grad1" />
    <linearGradient
       id="grad1"
       gradientUnits="userSpaceOnUse"
       x1="161.12"
       y1="56.12"
       x2="127.46"
       y2="80.45">
      <stop
         offset="0"
         stop-color="#fff4b0"
         id="stop4576" />
      <stop
         offset=".468"
         stop-color="#fef2ae"
         id="stop4578" />
      <stop
         offset=".757"
         stop-color="#f1e09d"
         id="stop4580" />
      <stop
         offset="1"
         stop-color="#c6a263"
         id="stop4582" />
    </linearGradient>
    <radialGradient
       id="grad0"
       cx="149.64"
       cy="116.71"
       r="42.05"
       gradientUnits="userSpaceOnUse">
      <stop
         offset="0"
         stop-color="#845507"
         id="stop4585" />
      <stop
         offset="1"
         stop-color="#d4b07a"
         id="stop4587" />
    </radialGradient>
    <inkscape:path-effect
       effect="spiro"
       id="path-effect4666-6"
       is_visible="true" />
    <inkscape:path-effect
       effect="spiro"
       id="path-effect4666-62"
       is_visible="true" />
    <inkscape:path-effect
       effect="spiro"
       id="path-effect4666-2"
       is_visible="true" />
    <inkscape:path-effect
       effect="spiro"
       id="path-effect4666-0"
       is_visible="true" />
    <inkscape:path-effect
       effect="spiro"
       id="path-effect4666-2-6"
       is_visible="true" />
  </defs>
  <path
     fill="#d17300"
     d="m255.83 111.83l-17.333-22.667-69.67-80.5-161.41 63.847c-1.676.694-2.509 2.528-.861 6.096 0 0 49.23 118.61 49.27 118.59l3.02 2.039c.481.258 1.534.274 3.21-.416 0 0 33.436-23.21 79.53-49.744 0 0 13.442.121 19.5-2.25 12.09-4.73 16.397-12.263 16.397-12.263 43.604-11.651 75.27-14.958 75.27-14.958 1.956-.319 5.415-4.776 3.082-7.777"
     id="path4592" />
  <path
     fill="#f28500"
     d="m254.33 111.67c.789 4.557-3.235 4.917-4.913 5.612 0 0-31.667 3.307-75.27 14.958 0 0-4.311 7.528-16.397 12.263-6.06 2.371-19.5 2.25-19.5 2.25-46.09 26.533-79.53 49.744-79.53 49.744-1.677.694-2.723 1.381-3.218.297l-48.946-118.18c-1.648-3.568-.815-5.402.861-6.096 0 0 158.54-61.53 158.55-61.54 17.527 6.02 88.36 100.69 88.36 100.69"
     id="path4594" />
  <path
     fill="#c6a263"
     d="M14.25 76 60 182.5 61.33 155.83 20.333 58z"
     id="path4596" />
  <path
     fill="#e8cf91"
     d="m63 154c0 0 52.33-37.999 58.33-38.33s27.642-2.493 27.642-2.493l23.775-22.17 61.35-8.836 4.736 28.645-75.17 14.191-12.334 8-12 2-79.33 47.5 3-28.5"
     id="path4598" />
  <path
     fill="url(#grad0)"
     d="m140.62 133.62c0 0 .042-12.12 9.709-16.458s12.354 7.583 12.354 7.583l-9.563 9.188-12.5-.313"
     id="path4600" />
  <path
     fill="url(#grad1)"
     d="m149.27 113.77l-55.17-79.917c-.352-.508-.356-1.177-.001-1.689.35-.521 8.639-12.797 14.352-17.03 7.213-5.353 25.06-6.197 39.41-6.876 7.104-.335 13.239-.625 16.479-1.381.115-.027.229-.04.342-.04.404 0 .798.163 1.084.462l69.33 72.33c.402.419.525 1.036.316 1.577-.21.544-.719.915-1.294.957-.566.04-56.701 4.103-67.813 13.324-9.705 8.06-14.433 18.06-14.433 18.06l-2.594.22"
     id="path4602" />
  <path
     fill="url(#grad2)"
     d="m59.948 154.91l-41.29-99.16c0 0 33.367-33.16 53.677-35.5l2.082-.062c9.782 0 18.963 13.397 18.963 13.397l55.6 79.59c-.0001.0001-1.505 2.336-1.505 2.336s-6.188-1.131-13.47-1.131c-7.632 0-13.83 1.24-17.923 3.59-12.865 7.385-53.855 37.572-53.855 37.572l-2.275-.628"
     id="path4604" />
  <path
     fill="#845507"
     d="m242.04 109.12l-3.321-28.873c-.122-.932-.563-1.734-1.189-2.342-.096-.117-69.62-72.69-69.62-72.69-.858-.897-2.037-1.387-3.248-1.387-.342 0-.685.04-1.022.119-2.813.669-9.227.996-15.938 1.306-7.653.362-15.854.748-23.15 1.758-7.299 1.029-13.697 2.61-17.907 5.704-4.833 3.619-10.783 11.697-13.547 15.602-3.645-4.313-10.398-11.03-18.691-11.134-.535 0-1.069.031-1.596.092-21.621 2.556-41.946 22.788-52.902 33.501-3.292 2.657-4.067 5.701-4.067 5.701l-3.78 17.931c0 0-.124.766-.039 1.743.085.977.323 1.793.323 1.793l44.06 103.21c0 0 1.156 3.048 2.526 3.153 1.37.106 4.099-1.885 4.099-1.885l76.82-45.996c0 0 5.603 3.108 14.311-.1s10.07-9.915 10.07-9.915l75.78-14.314c0 0 1.481-.229 1.897-.771s.127-2.207.127-2.207m-222.42-47.25c0 0 37.644 94.34 37.681 94.42l-.241 15.573-40.982-95.45 3.542-14.542m81.81-34.744c2.756-3.602 6.264-7.732 8.793-9.593 4.487-3.429 15.794-5.01 26.997-5.708 10.708-.72 21.302-.798 26.938-1.859l66.56 69.45c-5.071.422-15.606 1.391-26.909 2.981-7.893 1.11-16.15 2.523-23.22 4.275-7.07 1.777-12.901 3.789-16.224 6.503-7.228 6-11.74 12.844-13.84 16.487l-.214.2-8.918-12.764-44.25-64.1c.804-1.161 2.379-3.392 4.281-5.866m-27.929-3.891c.302-.036.606-.052.91-.052 3.825-.043 8.06 2.854 11.228 5.947 1.583 1.533 2.908 3.079 3.827 4.235.921 1.156 1.419 1.897 1.423 1.897l45.579 65.25 7.947 11.518c-2.568-.315-6.292-.654-10.416-.654-6.419.013-13.804.79-19.417 3.989-11.7 6.727-44.765 30.88-52.5 36.555-.049-.001-.099-.016-.148-.021l-39.827-94.88c9.422-9.237 31.08-31.542 51.39-33.787m87.75 98.26c0 0-1.083 5.5-8.08 9.167s-12.417-.917-12.417-.917l-76.08 45.25.613-17.985c7.01-5.146 40.968-29.953 52.29-36.442 3.485-2.02 9.218-3.202 16.429-3.193 6.985.002 13.313 1.108 13.512 1.14.396.063.804.1 1.212.1 2.061.054 4.369-1.071 5.8-3.688.085-.162.048-.098.102-.2.527-1.066 5.01-9.821 13.583-16.931 1.846-1.564 6.08-3.266 11.465-4.702 14.943-4.04 40.32-6.94 53.08-7.969l2.246 21.87-73.75 14.5"
     id="path4606" />
  <path
     style="fill:none;stroke:#c5bd9f;stroke-width:4.02519703;stroke-linecap:butt;stroke-linejoin:miter;stroke-miterlimit:4;stroke-dasharray:none;stroke-opacity:1"
     d="M 30.044554,63.118812 C 43.431334,49.81016 60.152904,39.882004 78.246,34.5 c 2.059577,-0.612645 4.199265,-1.172747 6.333208,-0.920792 2.750863,0.324795 5.292044,2.084074 6.564356,4.544554"
     id="path4652"
     inkscape:connector-curvature="0"
     inkscape:path-effect="#path-effect4654"
     inkscape:original-d="M 30.044554,63.118812 C 46.112703,53.578208 62.179851,44.038604 78.246,34.5 c 16.066149,-9.538604 4.223139,-0.614861 6.333208,-0.920792 2.110069,-0.305931 4.377238,3.028703 6.564356,4.544554"
     transform="translate(-0.264564,1.183842)" />
  <path
     style="fill:none;stroke:#c5bd9f;stroke-width:2.51338583;stroke-linecap:butt;stroke-linejoin:miter;stroke-opacity:1;stroke-miterlimit:4;stroke-dasharray:none"
     d="M 39.133663,80.034653 C 54.044957,66.43637 72.055297,56.256614 91.39604,50.49505 c 0.665566,-0.198271 1.334606,-0.391836 2.019802,-0.504951 2.073538,-0.342307 4.265625,0.08843 6.055473,1.189872 1.789845,1.101444 3.162215,2.86422 3.791065,4.869534"
     id="path4664"
     inkscape:connector-curvature="0"
     inkscape:path-effect="#path-effect4666"
     inkscape:original-d="M 39.133663,80.034653 C 56.555455,70.187119 73.976248,60.340584 91.39604,50.49505 c 17.41979,-9.845535 1.347534,-0.337634 2.019802,-0.504951 0.672267,-0.167317 6.565356,4.038604 9.846538,6.059406" />
  <path
     transform="translate(7.3980949,12.467096)"
     style="fill:none;stroke:#c5bd9f;stroke-width:2.51338577;stroke-linecap:butt;stroke-linejoin:miter;stroke-miterlimit:4;stroke-dasharray:none;stroke-opacity:1"
     d="M 38.628713,80.539603 C 53.627819,66.687602 71.828946,56.324281 91.39604,50.49505 c 0.665564,-0.198278 1.334605,-0.39184 2.019802,-0.504951 2.073537,-0.342296 4.265618,0.08844 6.055464,1.189886 1.789844,1.101443 3.162214,2.864212 3.791074,4.86952"
     id="path4664-0"
     inkscape:connector-curvature="0"
     inkscape:path-effect="#path-effect4666-6"
     inkscape:original-d="M 38.628713,80.539603 C 56.050505,70.692069 73.976248,60.340584 91.39604,50.49505 c 17.41979,-9.845535 1.347534,-0.337634 2.019802,-0.504951 0.672267,-0.167317 6.565356,4.038604 9.846538,6.059406"
     sodipodi:nodetypes="cssc" />
  <path
     transform="translate(15.477302,25.090858)"
     style="fill:none;stroke:#c5bd9f;stroke-width:2.51338577;stroke-linecap:butt;stroke-linejoin:miter;stroke-miterlimit:4;stroke-dasharray:none;stroke-opacity:1"
     d="M 36.861386,80.539603 C 52.612627,66.780736 71.349796,56.457945 91.39604,50.49505 c 0.665642,-0.198 1.334631,-0.391707 2.019802,-0.504951 2.07357,-0.342717 4.265869,0.08784 6.0558,1.189339 1.789928,1.101496 3.162238,2.86454 3.790738,4.870067"
     id="path4664-4"
     inkscape:connector-curvature="0"
     inkscape:path-effect="#path-effect4666-62"
     inkscape:original-d="M 36.861386,80.539603 C 54.283178,70.692069 73.976248,60.340584 91.39604,50.49505 c 17.41979,-9.845535 1.347534,-0.337634 2.019802,-0.504951 0.672267,-0.167317 6.565356,4.038604 9.846538,6.059406"
     sodipodi:nodetypes="cssc" />
  <path
     transform="translate(22.799085,37.20967)"
     style="fill:none;stroke:#c5bd9f;stroke-width:2.51338577;stroke-linecap:butt;stroke-linejoin:miter;stroke-miterlimit:4;stroke-dasharray:none;stroke-opacity:1"
     d="M 35.851485,81.549504 C 51.7809,67.281351 70.898629,56.592803 91.39604,50.49505 c 0.665637,-0.19802 1.334629,-0.391716 2.019802,-0.504951 2.073568,-0.342688 4.265851,0.08788 6.055777,1.189377 1.789921,1.101493 3.162241,2.864517 3.790761,4.870029"
     id="path4664-7"
     inkscape:connector-curvature="0"
     inkscape:path-effect="#path-effect4666-2"
     inkscape:original-d="M 35.851485,81.549504 C 53.273277,71.70197 73.976248,60.340584 91.39604,50.49505 c 17.41979,-9.845535 1.347534,-0.337634 2.019802,-0.504951 0.672267,-0.167317 6.565356,4.038604 9.846538,6.059406"
     sodipodi:nodetypes="cssc" />
  <path
     transform="translate(30.120867,50.338384)"
     style="fill:none;stroke:#c5bd9f;stroke-width:2.51338577;stroke-linecap:butt;stroke-linejoin:miter;stroke-miterlimit:4;stroke-dasharray:none;stroke-opacity:1"
     d="M 35.59901,82.054455 C 51.509063,67.518969 70.740905,56.641231 91.39604,50.49505 c 0.665624,-0.198064 1.334625,-0.391738 2.019802,-0.504951 2.073563,-0.34262 4.265811,0.08798 6.055722,1.189466 1.789916,1.101483 3.162236,2.864463 3.790816,4.86994"
     id="path4664-7-2"
     inkscape:connector-curvature="0"
     inkscape:path-effect="#path-effect4666-2-6"
     inkscape:original-d="M 35.59901,82.054455 C 53.020802,72.206921 73.976248,60.340584 91.39604,50.49505 c 17.41979,-9.845535 1.347534,-0.337634 2.019802,-0.504951 0.672267,-0.167317 6.565356,4.038604 9.846538,6.059406"
     sodipodi:nodetypes="cssc" />
  <text
     xml:space="preserve"
     style="font-style:normal;font-variant:normal;font-weight:normal;font-stretch:normal;font-size:112.93488312px;line-height:1.25;font-family:Calibri;-inkscape-font-specification:'Calibri, Normal';font-variant-ligatures:normal;font-variant-caps:normal;font-variant-numeric:normal;text-align:start;letter-spacing:0px;word-spacing:0px;writing-mode:lr-tb;text-anchor:start;fill:#cc3602;fill-opacity:1;stroke:none;stroke-width:2.35281038"
     x="65.5774"
     y="158.66151"
     id="text4738"
     transform="matrix(1.0798427,-0.4478802,0.44084755,0.74321299,0,0)"
     inkscape:transform-center-x="-4.7983885"
     inkscape:transform-center-y="1.7554353"><tspan
       sodipodi:role="line"
       id="tspan4736"
       x="65.5774"
       y="158.66151"
       style="fill:#cc3602;fill-opacity:1;stroke-width:2.35281038">?</tspan></text>
</svg>
